# Blender 4.0.2
# www.blender.org
g A_Page_Plane
v -1.000000 0.000000 1.000000
v 1.000000 0.000000 1.000000
v -1.000000 0.000000 -1.000000
v 1.000000 0.000000 -1.000000
vn -0.0000 1.0000 -0.0000
vt 0.000000 0.000000
vt 0.500000 0.000000
vt 0.500000 1.000000
vt 0.000000 1.000000
s 0
usemtl Material.001
f 1/1/1 2/2/1 4/3/1 3/4/1
g B_Page_Plane.001
v 1.000000 -0.000000 1.000000
v -1.000000 0.000000 1.000000
v 1.000000 -0.000000 -1.000000
v -1.000000 0.000000 -1.000000
vn -0.0000 -1.0000 -0.0000
vt 0.500000 0.000000
vt 1.000000 0.000000
vt 1.000000 1.000000
vt 0.500000 1.000000
s 0
usemtl Material.001
f 5/5/2 6/6/2 8/7/2 7/8/2
